<svg xmlns="http://www.w3.org/2000/svg" width="30" height="30" fill="none"><path fill="#fff" fill-rule="evenodd" d="M2.062 13.332c8.053-3.387 13.423-5.62 16.11-6.699C25.844 3.553 27.438 3.018 28.477 3c.228-.004.74.051 1.07.31.28.22.357.515.393.722.037.208.083.68.047 1.05-.416 4.217-2.215 14.45-3.13 19.172-.387 1.998-1.15 2.668-1.888 2.734-1.604.143-2.822-1.023-4.376-2.006-2.431-1.539-3.805-2.497-6.165-3.998-2.727-1.735-.96-2.689.595-4.247.407-.408 7.475-6.614 7.612-7.177.017-.07.033-.333-.129-.471-.161-.139-.4-.092-.572-.054-.244.053-4.128 2.532-11.652 7.435-1.102.73-2.1 1.087-2.995 1.068-.987-.02-2.884-.538-4.295-.981-1.73-.543-3.104-.83-2.985-1.752.063-.48.748-.971 2.055-1.473z" clip-rule="evenodd"/></svg>