<?xml version="1.0" encoding="UTF-8"?>
<svg version="1.1" xmlns="http://www.w3.org/2000/svg" width="178" height="191">
<path d="M0 0 C12.92888434 8.03818277 22.22312222 19.82253295 26.40673828 34.4597168 C27.42819868 39.15633286 27.48825695 43.77176339 27.4375 48.5625 C27.42920166 49.57401123 27.42090332 50.58552246 27.41235352 51.62768555 C26.97120521 71.12769672 16.32505774 82.13426207 3.53125 95.56347656 C1.80303766 97.39639565 0.13802539 99.27368462 -1.5 101.1875 C-5.44433199 105.77580456 -9.61427911 110.15646942 -13.76367188 114.55859375 C-17.34399783 118.36847942 -20.81919396 122.25108931 -24.24951172 126.19628906 C-29.0298217 131.633975 -34.04051589 136.86466634 -39.03027344 142.109375 C-40.31318224 143.46288513 -41.59020373 144.82200773 -42.86035156 146.1875 C-52.82907036 156.8956419 -63.23090082 165.78348166 -78.63671875 166.5234375 C-95.37796576 166.82491833 -107.08844158 163.47914212 -119.6875 152 C-130.16016498 140.95789933 -133.49769804 128.45585483 -133.42431641 113.72924805 C-132.96503684 97.23987881 -126.01176096 85.85960967 -115 74.1875 C-113.39079863 72.42124058 -111.78650207 70.65049818 -110.1875 68.875 C-109.47980469 68.09511719 -108.77210937 67.31523438 -108.04296875 66.51171875 C-106.66825306 64.94774966 -105.33736554 63.34426777 -104.05078125 61.70703125 C-101.85150857 59.00506767 -99.47968016 56.63520721 -97 54.1875 C-94.4397543 51.51748794 -91.90754843 48.82126873 -89.375 46.125 C-88.66931885 45.37420166 -87.9636377 44.62340332 -87.23657227 43.84985352 C-76.61401014 32.53915965 -76.61401014 32.53915965 -66.3125 20.9375 C-49.43892565 1.6306206 -25.9049003 -11.98713963 0 0 Z M-54.5625 26.5625 C-55.21798828 27.22443359 -55.87347656 27.88636719 -56.54882812 28.56835938 C-60.34098389 32.42112902 -64.01532351 36.33681824 -67.50390625 40.46875 C-70.17190034 43.53380848 -73.08849062 46.35563678 -76 49.1875 C-74.60537573 52.37884185 -72.99566223 54.37835045 -70.4375 56.7265625 C-69.72779053 57.38470947 -69.01808105 58.04285645 -68.28686523 58.72094727 C-67.53219971 59.41115967 -66.77753418 60.10137207 -66 60.8125 C-64.44805753 62.25004947 -62.89727139 63.68884833 -61.34765625 65.12890625 C-60.59758301 65.82516113 -59.84750977 66.52141602 -59.07470703 67.23876953 C-56.46789722 69.68729341 -53.94666758 72.20156532 -51.4375 74.75 C-48.78977551 77.43320488 -46.12311213 79.99806517 -43.25 82.4375 C-38.5410528 86.4516845 -34.25081742 90.885891 -29.92285156 95.30175781 C-27.08906026 98.17664146 -24.34855074 100.89987622 -21 103.1875 C-14.85340398 97.27188254 -9.33846877 91.24775594 -4.01953125 84.578125 C-1.61655421 81.73359512 1.13832758 79.56207924 4 77.1875 C11.9103799 68.78368509 16.1222308 60.76473872 16.4375 49.125 C16.03715193 37.28244575 12.0523567 26.64920859 3.3125 18.375 C-16.81794139 1.96810846 -38.11746328 9.77592566 -54.5625 26.5625 Z " fill="#FDFDFD" transform="translate(142,15.8125)"/>
<path d="M0 0 C0.33 0 0.66 0 1 0 C1.70449149 21.31899642 -0.31549272 34.63358481 -15.13525391 50.63549805 C-17.56598185 53.22884735 -20.01702992 55.80249137 -22.46875 58.37597656 C-24.19696234 60.20889565 -25.86197461 62.08618462 -27.5 64 C-31.44433199 68.58830456 -35.61427911 72.96896942 -39.76367188 77.37109375 C-43.34399783 81.18097942 -46.81919396 85.06358931 -50.24951172 89.00878906 C-55.0298217 94.446475 -60.04051589 99.67716634 -65.03027344 104.921875 C-66.31318224 106.27538513 -67.59020373 107.63450773 -68.86035156 109 C-78.82907036 119.7081419 -89.23090082 128.59598166 -104.63671875 129.3359375 C-121.37796576 129.63741833 -133.08844158 126.29164212 -145.6875 114.8125 C-158.1090493 101.71554731 -159.46859276 87.74757976 -159.04760742 70.67724609 C-159.03189697 70.12375488 -159.01618652 69.57026367 -159 69 C-158.67 69 -158.34 69 -158 69 C-157.97421875 69.84820312 -157.9484375 70.69640625 -157.921875 71.5703125 C-157.14604228 87.61594375 -153.0658444 100.83029159 -141.61328125 112.4140625 C-129.9636197 122.43164586 -116.8761779 125.01556714 -102 124 C-98.41666425 123.42783002 -95.32794085 122.4294511 -92 121 C-90.78570312 120.5359375 -90.78570312 120.5359375 -89.546875 120.0625 C-77.07559408 114.38694701 -67.52176749 102.134771 -58.70605469 91.94677734 C-55.88234178 88.72464129 -52.93833216 85.61730034 -50 82.5 C-44.66621583 76.82593007 -44.66621583 76.82593007 -39.5 71 C-36.16884665 67.12911547 -32.6773933 63.41459734 -29.1875 59.6875 C-28.27278931 58.70765137 -28.27278931 58.70765137 -27.33959961 57.70800781 C-24.61038965 54.78491955 -21.87642914 51.86742248 -19.1171875 48.97265625 C-5.16256915 34.10053241 -0.47986589 20.03440107 0 0 Z " fill="#080808" transform="translate(168,53)"/>
<path d="M0 0 C8.77022854 6.17902465 13.59450862 13.51874909 16.2890625 23.89453125 C16.8094481 27.3994813 16.79395025 30.85770111 16.75 34.390625 C16.74548828 35.08349609 16.74097656 35.77636719 16.73632812 36.49023438 C16.72463156 38.18623568 16.70669924 39.88219203 16.6875 41.578125 C16.3575 41.578125 16.0275 41.578125 15.6875 41.578125 C15.62433594 40.58554688 15.56117188 39.59296875 15.49609375 38.5703125 C14.52974099 26.85655004 11.77876617 15.95666924 2.9375 7.515625 C-5.66282621 0.88060771 -15.53553952 -2.44619119 -26.3125 -1.421875 C-44.04276858 2.29404955 -55.39541111 15.38293301 -66.71484375 28.7578125 C-69.73684712 32.20097526 -73.03645671 35.37866454 -76.3125 38.578125 C-77.3025 37.588125 -78.2925 36.598125 -79.3125 35.578125 C-78.67183594 34.9490625 -78.03117187 34.32 -77.37109375 33.671875 C-72.7170832 29.06641597 -68.21663893 24.42028741 -63.9609375 19.4453125 C-61.75069252 16.94176486 -59.37770658 14.62802166 -56.98828125 12.296875 C-55.34574829 10.61222581 -53.90197925 8.85530141 -52.4375 7.015625 C-39.01694464 -8.73586892 -17.03654059 -10.47517023 0 0 Z " fill="#060606" transform="translate(142.3125,27.421875)"/>
</svg>
