<svg xmlns="http://www.w3.org/2000/svg" width="100" height="100" fill="none"><path fill="#fff" fill-rule="evenodd" d="M38.353 5.655c-5.96 3.103-10.835 5.729-10.834 5.836.003.275 14.303 7.515 14.81 7.497.231-.008 1.907-.778 3.722-1.712l3.303-1.698 3.607 1.853 3.606 1.853 5.906-2.653c8.9-3.997 9.824-4.435 9.68-4.582-.193-.196-3.385-1.91-12.045-6.468C55.922 3.38 51.86 1.22 51.08.781c-.78-.436-1.524-.788-1.654-.78-.13.006-5.113 2.55-11.073 5.654zm-26.138 13.53-6.204 3.203v14.058c0 7.732.082 14.059.182 14.059.1 0 3.151-1.323 6.782-2.94l6.602-2.939V29.808l3.226 1.757c2.485 1.352 4.973 2.702 7.462 4.05l4.236 2.292 1.885-.852a439.434 439.434 0 0 0 3.539-1.621c.91-.424 3.143-1.43 4.963-2.235 1.82-.807 3.504-1.617 3.743-1.802.317-.246-3.552-2.383-14.31-7.905-8.11-4.164-15.006-7.556-15.324-7.54-.318.016-3.37 1.47-6.782 3.233zm61.055.9c-4.225 1.906-7.685 3.542-7.688 3.635-.004.094 2.299 1.462 5.117 3.042 2.819 1.58 5.125 2.956 5.125 3.06 0 .103-2.494 1.311-5.542 2.685a18373.5 18373.5 0 0 0-17.122 7.729l-21.341 9.643c-5.369 2.425-10.207 4.612-10.753 4.86C10.1 59.7 7.086 61.076 6.673 61.312c-.416.238-.51 1.62-.585 8.558L6 78.147l5.548 2.825 5.547 2.826 7.693-3.47c4.23-1.91 7.692-3.57 7.692-3.693 0-.122-.781-.632-1.737-1.132-.955-.501-2.928-1.61-4.384-2.465-1.455-.854-2.907-1.638-3.226-1.742-.318-.104-.574-.286-.569-.404.005-.118 3.393-1.726 7.527-3.575 8.03-3.588 14.176-6.355 27.37-12.319 5.9-2.666 11.8-5.331 17.701-7.994 5.186-2.34 11.216-5.073 13.4-6.073l3.97-1.819.089-8.37.089-8.368-5.627-2.887c-3.095-1.588-5.74-2.883-5.88-2.878-.138.004-3.708 1.568-7.933 3.475zm17.755 30.192a138.93 138.93 0 0 1-3.64 1.684 703.31 703.31 0 0 0-4.944 2.23l-2.812 1.283-.065 7.348c-.035 4.04-.184 7.329-.33 7.307-.333-.049-5.604-2.751-10.903-5.59-3.824-2.047-4.064-2.129-4.963-1.684-.52.257-3.624 1.65-6.9 3.094-3.276 1.445-6.062 2.72-6.193 2.836-.131.116 6.462 3.687 14.65 7.938l14.888 7.728 6.36-3.289c3.498-1.808 6.472-3.458 6.609-3.666.308-.466.282-28.02-.027-27.982-.122.015-.9.358-1.73.763zm-35.219 32.34c-1.103.474-2.206.95-3.308 1.425-3.33 1.44-2.677 1.487-6.638-.484-2.639-1.313-3.776-1.718-4.27-1.521-.37.147-3.556 1.58-7.081 3.185-3.525 1.604-6.531 2.916-6.68 2.916-1.48 0 .979 1.468 10.466 6.252L49.421 100l4.682-2.31c2.575-1.271 7.768-3.816 11.54-5.655 3.773-1.84 6.813-3.392 6.756-3.45-.057-.06-3.218-1.682-7.025-3.607l-6.92-3.499-2.648 1.138z" clip-rule="evenodd"/></svg>