<svg xmlns="http://www.w3.org/2000/svg" width="100" height="100" fill="none"><path fill="#fff" fill-rule="evenodd" d="M58.606 35.622c3.059-1.525 6.951-3.77 10.848-6.847.822 1.706.912 3.195.489 4.398-.3.847-.866 1.584-1.61 2.17-.804.634-1.81 1.095-2.92 1.345-2.11.475-4.571.197-6.807-1.066zm.53 15.629 4.05 2.339C54.918 58.224 52.67 66.828 50 75.21c-2.67-8.382-4.918-16.986-13.185-21.62l4.049-2.34a1.984 1.984 0 0 0 1.28-1.948c-.371-7.849 1.748-11.32 4.607-13.499 1.025-.78 2.145-1.173 3.249-1.173s2.224.392 3.25 1.173c2.858 2.18 4.977 5.65 4.606 13.5a1.984 1.984 0 0 0 1.28 1.948zM50 0c4.68.126 9.373 1.034 13.445 2.802a33.812 33.812 0 0 1 7.834 4.78c1.076.875 1.962 1.719 2.938 2.691 2.633.091 6.48-2.833 8.266-5.57-3.074 10.077-17.1 21.977-26.81 26.53l-.01-.006c-1.743-1.33-3.703-1.996-5.663-1.996-1.96 0-3.92.665-5.663 1.996-.003.002-.005.005-.01.006-9.71-4.553-23.736-16.453-26.81-26.53 1.786 2.737 5.633 5.661 8.266 5.57.976-.972 1.862-1.816 2.938-2.69a33.812 33.812 0 0 1 7.834-4.781C40.627 1.034 45.32.126 50 0zm-8.606 35.622c-3.059-1.525-6.951-3.77-10.848-6.847-.822 1.706-.912 3.195-.489 4.398.3.847.866 1.584 1.609 2.17.805.634 1.81 1.095 2.922 1.345 2.109.475 4.57.197 6.806-1.066z" clip-rule="evenodd"/><path fill="#fff" fill-rule="evenodd" d="M73.722 25.005c2.146-2.165 4.036-4.561 5.556-6.7l.772 1.454c2.485 4.972 3.777 9.924 3.777 15.498L83.82 44.1l.047 4.584c.18 11.256 2.615 22.643 8.132 33.065l-11.542-9.308-8.167 13.253-8.58-8.077L50 99.868l-13.71-22.25-8.58 8.078-8.167-13.253L8 81.75c5.517-10.421 7.952-21.809 8.132-33.064l.047-4.585-.005-8.844c0-5.574 1.29-10.526 3.777-15.498l.771-1.453c1.52 2.138 3.41 4.534 5.556 6.7l-.67 1.391c-1.302 2.703-1.733 5.726-.719 8.6.654 1.851 1.847 3.439 3.385 4.651 1.493 1.177 3.26 1.97 5.111 2.387a14.57 14.57 0 0 0 3.653.345c-.284 1.614-.409 3.287-.417 4.993L25.733 53.66l8.402 4.71c.672.377 1.311.808 1.912 1.29C42.974 65.88 47.138 84.279 50 93.266c2.863-8.987 7.027-27.386 13.954-33.605.6-.482 1.24-.914 1.912-1.29l8.402-4.71-10.889-6.288c-.008-1.706-.132-3.38-.417-4.993a14.57 14.57 0 0 0 3.654-.345c1.85-.417 3.618-1.21 5.11-2.387 1.538-1.212 2.732-2.8 3.385-4.651 1.014-2.874.583-5.896-.718-8.6l-.67-1.391z" clip-rule="evenodd"/></svg>